<?xml version="1.0" encoding="utf-8"?>
<!-- Generator: Adobe Illustrator 25.4.0, SVG Export Plug-In . SVG Version: 6.00 Build 0)  -->
<svg version="1.1" id="Layer_1" xmlns="http://www.w3.org/2000/svg" xmlns:xlink="http://www.w3.org/1999/xlink" x="0px" y="0px"
	 viewBox="0 0 1238.98 271.3" style="enable-background:new 0 0 1238.98 271.3;" xml:space="preserve">
<style type="text/css">
	.st0{fill:#FFFFFF;}
	.st1{fill:#03F235;}
	.st2{fill:url(#SVGID_1_);}
	.st3{fill:url(#SVGID_00000165941734181987051990000008024711205748748444_);}
	.st4{fill:url(#SVGID_00000011730199567047434500000004392060445408460433_);}
	.st5{fill:url(#SVGID_00000014601296077317899070000007230064588143296154_);}
	.st6{fill:url(#SVGID_00000054983758965895588830000012862663676103077037_);}
	.st7{fill:url(#SVGID_00000067207645706953010900000010782282155797275290_);}
	.st8{fill:#434749;}
	.st9{fill:url(#SVGID_00000168803722337587426550000012132904746385454727_);}
	.st10{fill:url(#SVGID_00000142888938556036979850000015237006274828809857_);}
	.st11{fill:url(#SVGID_00000090267914989719604290000004566370618933385122_);}
	.st12{fill:url(#SVGID_00000170262515750640834520000010411161032114646156_);}
	.st13{fill:url(#SVGID_00000062170587958802389770000011225123569281774013_);}
	.st14{fill:url(#SVGID_00000098913311043998153800000004269524652768559281_);}
	.st15{fill:url(#SVGID_00000169544950480886069400000007206688860273064321_);}
	.st16{fill:url(#SVGID_00000070093205659655203400000009500243411102297750_);}
	.st17{fill:url(#SVGID_00000127730357501256559700000013074674802355409072_);}
	.st18{fill:url(#SVGID_00000131334370873816819450000010769763441340988311_);}
	.st19{fill:url(#SVGID_00000028290760844327168440000005057274736121394106_);}
	.st20{fill:url(#SVGID_00000087398586513399001320000004858949149721128071_);}
</style>
<g>
	<g>
		<path class="st8" d="M265.92,181.11V93.73h20.32v71.25h67.44v16.13H265.92z"/>
		<path class="st8" d="M456.17,182.13h-49.03c-25.02,0-36.71-8.26-36.71-32.13v-25.02c0-23.88,11.43-32.13,36.58-32.13h49.15
			c25.02,0,36.71,8.26,36.71,32.13v24.89C492.88,173.62,481.2,182.13,456.17,182.13z M472.18,126.88c0-13.08-6.1-18.04-19.69-18.04
			h-41.66c-13.59,0-19.69,4.83-19.69,18.04v21.08c0,13.84,6.1,18.16,18.8,18.16h43.31c12.7,0,18.8-4.32,18.8-18.16L472.18,126.88z"
			/>
		<path class="st8" d="M593.21,182.13h-42.55c-25.02,0-36.71-8.26-36.71-32.13v-25.02c0-23.88,11.43-32.13,36.58-32.13h44.71
			c24.39,0,35.44,7.24,35.44,25.91v3.05H611c0-12.57-5.33-13.72-25.15-13.72h-31.37c-13.08,0-19.81,3.3-19.81,18.42v21.85
			c0,15.11,6.48,18.42,19.69,18.42h39.37c9.91,0,17.53-2.54,17.53-12.83v-5.72H570.1v-13.84h61.47v18.42
			C631.57,177.17,620.65,182.13,593.21,182.13z"/>
		<path class="st8" d="M655.83,181.11V93.73h20.32v87.38H655.83z"/>
		<path class="st8" d="M787.41,181.11h-84.84V93.73h79.89c20.7,0,28.96,7.62,28.96,21.21c0,0.63-0.13,2.16-0.13,3.68
			c0,1.4-0.13,2.79-0.13,3.3c0,6.73-5.08,12.19-14.1,13.59v0.38c9.65,1.02,17.4,4.32,17.4,15.5v8.89
			C814.46,175.9,803.16,181.11,787.41,181.11z M790.96,121.16c0-0.89-0.25-3.68-0.25-4.19c0-6.99-6.6-7.87-10.29-7.87h-57.54v20.83
			h57.15c5.97,0,10.8-1.91,10.8-8.89L790.96,121.16z M794.01,154.44c0-1.02-0.13-2.16-0.13-2.29c-0.63-7.11-5.59-8.51-13.72-8.51
			h-57.28v22.23h58.17c9.02,0,13.08-2.67,13.08-9.14C794.14,156.34,794.01,155.46,794.01,154.44z"/>
		<path class="st8" d="M838.08,181.11V93.73h20.32v71.25h67.44v16.13H838.08z"/>
		<path class="st8" d="M1027.07,182.13h-49.03c-25.02,0-36.71-8.26-36.71-32.13v-25.02c0-23.88,11.43-32.13,36.58-32.13h49.15
			c25.02,0,36.71,8.26,36.71,32.13v24.89C1063.77,173.62,1052.09,182.13,1027.07,182.13z M1043.07,126.88
			c0-13.08-6.1-18.04-19.69-18.04h-41.66c-13.59,0-19.69,4.83-19.69,18.04v21.08c0,13.84,6.1,18.16,18.8,18.16h43.31
			c12.7,0,18.8-4.32,18.8-18.16L1043.07,126.88z"/>
		<path class="st8" d="M1180.11,181.11l-37.21-36.2l-36.83,36.2h-28.07l47.88-44.96l-43.44-42.42h27.05l33.4,32.9l33.66-32.9h26.8
			l-43.44,42.29l47.88,45.09H1180.11z"/>
	</g>
	<path class="st1" d="M681.5,54.44l-23.3-13.45c-3.38-1.95-7.6,0.49-7.6,4.39v26.91c0,3.9,4.22,6.33,7.6,4.39l23.3-13.45
		C684.88,61.27,684.88,56.39,681.5,54.44z"/>
	<g>
		<linearGradient id="SVGID_1_" gradientUnits="userSpaceOnUse" x1="80.8" y1="113.5192" x2="157.4614" y2="113.5192">
			<stop  offset="0" style="stop-color:#00A4FF"/>
			<stop  offset="1" style="stop-color:#00E4FF"/>
		</linearGradient>
		<polygon class="st2" points="80.8,113.52 80.8,113.52 119.13,135.65 157.46,113.52 157.46,113.52 119.13,91.39 		"/>
		
			<linearGradient id="SVGID_00000054972787389825642700000011205610989460519326_" gradientUnits="userSpaceOnUse" x1="144.19" y1="139.6254" x2="207.0793" y2="139.6254">
			<stop  offset="0" style="stop-color:#00A4FF"/>
			<stop  offset="1" style="stop-color:#00E4FF"/>
		</linearGradient>
		<polygon style="fill:url(#SVGID_00000054972787389825642700000011205610989460519326_);" points="182.52,70.69 182.52,99.05 
			182.52,172.25 144.19,194.38 168.75,208.56 207.08,186.43 207.08,84.87 		"/>
		
			<linearGradient id="SVGID_00000051355393066875006380000016635910080489909385_" gradientUnits="userSpaceOnUse" x1="31.1825" y1="73.6627" x2="157.4618" y2="73.6627">
			<stop  offset="0" style="stop-color:#00A4FF"/>
			<stop  offset="1" style="stop-color:#00E4FF"/>
		</linearGradient>
		<polygon style="fill:url(#SVGID_00000051355393066875006380000016635910080489909385_);" points="119.13,34.1 31.18,84.87 
			31.18,113.23 55.74,99.05 119.13,62.45 157.46,84.58 157.46,56.23 		"/>
		
			<linearGradient id="SVGID_00000140002616057444640390000009114314090099799471_" gradientUnits="userSpaceOnUse" x1="31.1825" y1="182.5954" x2="143.6889" y2="182.5954">
			<stop  offset="0" style="stop-color:#00A4FF"/>
			<stop  offset="1" style="stop-color:#00E4FF"/>
		</linearGradient>
		<polygon style="fill:url(#SVGID_00000140002616057444640390000009114314090099799471_);" points="119.13,208.85 119.13,208.85 
			119.13,208.85 55.74,172.25 55.74,127.99 31.18,142.17 31.18,186.43 119.13,237.2 143.69,223.03 		"/>
		
			<linearGradient id="SVGID_00000164477639850620181600000006119320597095916198_" gradientUnits="userSpaceOnUse" x1="80.8" y1="146.7148" x2="119.1309" y2="146.7148">
			<stop  offset="0" style="stop-color:#00A4FF"/>
			<stop  offset="1" style="stop-color:#00E4FF"/>
		</linearGradient>
		<polygon style="fill:url(#SVGID_00000164477639850620181600000006119320597095916198_);" points="80.8,113.52 80.8,157.78 
			119.13,179.91 119.13,135.65 		"/>
	</g>
	
		<linearGradient id="SVGID_00000039853736552620166770000001824429761722348957_" gradientUnits="userSpaceOnUse" x1="119.1309" y1="146.7148" x2="157.4614" y2="146.7148">
		<stop  offset="0" style="stop-color:#00A4FF"/>
		<stop  offset="1" style="stop-color:#00E4FF"/>
	</linearGradient>
	<polygon style="fill:url(#SVGID_00000039853736552620166770000001824429761722348957_);" points="157.46,113.52 119.13,135.65 
		119.13,179.91 157.46,157.78 	"/>
</g>
</svg>
